{"asset":{"version":"2.0","generator":"Unity 6000.0.34f1 glTFast 6.0.1"},"nodes":[{"name":"Main Camera","children":[1],"translation":[-0.843,0.249,0.641],"rotation":[0.07058816,0.8750962,-0.13372907,0.45971787]},{"name":"Main Camera_Orientation","rotation":[0,-1,0,-4.371139E-08],"camera":0},{"name":"Directional Light","children":[3],"translation":[0,3,0],"rotation":[0.408217877,0.234569684,-0.109381631,0.8754261]},{"name":"Directional Light_Orientation","rotation":[0,-1,0,-4.371139E-08],"extensions":{"KHR_lights_punctual":{"light":0}}},{"name":"Asteroids Belt","translation":[8.540982,0,2.83753729],"rotation":[-0.7071068,0,0,0.7071068]},{"name":"Asteroids Sphere","translation":[8.540982,0,2.83753729],"rotation":[-0.7071068,0,0,0.7071068]},{"name":"Nebula_Details"},{"name":"Nebula_00","children":[6],"translation":[8.540982,0,2.83753729]},{"name":"Nebula_Details"},{"name":"Nebula_01","children":[8],"translation":[-1.45901775,0,2.83753729]},{"name":"Glow"},{"name":"Pluto","mesh":0},{"name":"Pluto_Lod","mesh":1},{"name":"Pluto","children":[10,11,12],"translation":[-18.4590187,0,2.83753729],"scale":[0.17799,0.17799,0.17799]},{"name":"Sun FX","scale":[2,2,2]},{"name":"Sun Glow","scale":[2,2,2]},{"name":"Sphere","mesh":2,"scale":[2,2,2]},{"name":"Sun","children":[14,15,16],"translation":[8.540982,0,2.83753729]},{"name":"Sun FX"},{"name":"Sun Glow"},{"name":"Sun Sphere","children":[18,19],"mesh":17,"translation":[8.540982,0,2.83753729],"scale":[2,2,2]},{"name":"Glow"},{"name":"Venus","mesh":18},{"name":"Venus_Lod","mesh":19},{"name":"Venus","children":[21,22,23],"translation":[2.54098225,0,2.83753729],"scale":[0.32825,0.32825,0.32825]},{"name":"Glow"},{"name":"Earth","mesh":20},{"name":"Earth_Lod","mesh":21},{"name":"Earth","children":[25,26,27],"rotation":[0,-0.159690246,0,0.9871672],"scale":[0.39896,0.39896,0.39896]},{"name":"Glow"},{"name":"Jupiter","mesh":22},{"name":"Jupiter_Lod","mesh":23},{"name":"Jupiter","children":[29,30,31],"translation":[-5.64364624,0,7.715685],"rotation":[0,0.16486074,0,0.98631686]},{"name":"Glow"},{"name":"Mars","mesh":24},{"name":"Mars_Lod","mesh":25},{"name":"Mars","children":[33,34,35],"translation":[-0.9366741,0,-4.522764],"rotation":[0,-0.3241877,0,0.9459928],"scale":[0.337090045,0.33709,0.337090045]},{"name":"Glow"},{"name":"Moon","mesh":26},{"name":"Moon_Lod","mesh":27},{"name":"Moon","children":[37,38,39],"translation":[-0.794,0,-0.121],"rotation":[0,-0.281125873,0,0.959670961],"scale":[0.07256438,0.07256438,0.07256438]},{"name":"Glow"},{"name":"Mercury","mesh":28},{"name":"Mercury_Lod","mesh":29},{"name":"Mercury","children":[41,42,43],"translation":[9.912076,0,5.50589],"rotation":[0,0.853531241,0,0.5210417],"scale":[0.248699978,0.2487,0.248699978]},{"name":"Ring","mesh":3,"rotation":[0,0,-0.130526155,0.9914449]},{"name":"Glow"},{"name":"Saturn","mesh":30},{"name":"Saturn_Lod","mesh":31},{"name":"Saturn","children":[45,46,47,48],"translation":[25.265934,0,-3.81648874],"rotation":[0,-0.9821313,0,0.1881969],"scale":[0.77019,0.77019,0.77019]},{"name":"Glow"},{"name":"Neptune","mesh":32},{"name":"Neptune_Lod","mesh":33},{"name":"Neptune","children":[50,51,52],"translation":[-6.96374226,0,21.1570244],"rotation":[0,0.420695722,0,0.9072018],"scale":[0.425479949,0.42548,0.425479949]},{"name":"Glow"},{"name":"Uranus","mesh":34},{"name":"Uranus_Lod","mesh":35},{"name":"Uranus","children":[54,55,56],"translation":[8.447051,0,23.837326],"rotation":[0,0.7055236,0,0.7086864],"scale":[0.5403799,0.54038,0.5403799]},{"name":"SolarSystem","children":[4,5,7,9,13,17,20,24,28,32,36,40,44,49,53,57]},{"name":"body","mesh":4,"scale":[1,1,1.139037]},{"name":"borders","mesh":5,"translation":[0,0,0.0195729062],"rotation":[1.49011612E-08,1.33226763E-15,-1.98523347E-23,1]},{"name":"chair","mesh":6,"translation":[0.00355316163,-0.05071014,0.474648625]},{"name":"exhaust_00","mesh":7,"translation":[0,0,-0.09375488]},{"name":"exhaust_01","mesh":8,"translation":[0,0,-0.09375488],"rotation":[0,0,0.7071068,0.7071068]},{"name":"exhaust_02","mesh":9,"translation":[0,0,-0.09375488],"rotation":[0,0,-0.7071068,0.7071068]},{"name":"exhaust_03","mesh":10,"translation":[0,0,-0.09375488],"rotation":[0,0,-1,1.62920685E-07]},{"name":"glass","mesh":11,"translation":[0,-3.7252903E-09,0.0237767138],"rotation":[0,0,-0.0137668112,0.9999053],"scale":[1,1,1.139037]},{"name":"table","mesh":12,"translation":[-0.17715393,-0.06487579,0.4401064]},{"name":"window_01","mesh":13,"translation":[0,0,0.294954866],"rotation":[0.270598084,-0.6532815,-0.65328145,0.270598024]},{"name":"window_004","mesh":14,"translation":[0.000660239544,-0.000711669447,0.29440555],"rotation":[0.653281569,-0.270598054,-0.270598024,0.65328145]},{"name":"window_005","mesh":15,"translation":[0,0,0.294954866],"rotation":[0.653281569,0.270598143,0.270598084,0.65328145]},{"name":"window_006","mesh":16,"translation":[0,0,0.294954866],"rotation":[-0.270598084,-0.6532815,-0.65328145,-0.270598024]},{"name":"rocket_betterWindows","children":[59,60,61,62,63,64,65,66,67,68,69,70,71],"translation":[0,3.96,0],"rotation":[-0.7071068,0,0,0.7071068],"scale":[10,10,10]},{"name":"rocket","children":[72],"translation":[-0.3186439,0.0531532466,0.302],"rotation":[0.7071068,0,0,0.7071068],"scale":[0.0024244,0.0024244,0.0024244]},{"name":"MoonFocus","translation":[-1.141,0.091,-0.013],"rotation":[0.04173755,0.7906923,-0.140396535,0.5944346]},{"name":"TimeLine","translation":[-0.1532993,0.0337542444,0.3661695]},{"name":"WorldFocus","translation":[-0.843,0.249,0.641],"rotation":[0.07058816,0.8750962,-0.13372907,0.45971787]},{"name":"VFX_Sparks"},{"name":"Smoke Variant","children":[77],"translation":[-0.8301663,0.091,-0.05],"rotation":[0.738283038,0,0,0.674491048],"scale":[2,2,2]}],"extensionsRequired":["KHR_materials_unlit","KHR_lights_punctual"],"extensionsUsed":["KHR_materials_unlit","KHR_lights_punctual"],"buffers":[{"uri":"SpaceSceneAH.bin","byteLength":355320}],"bufferViews":[{"buffer":0,"byteLength":23784},{"buffer":0,"byteLength":1920,"byteOffset":23784},{"buffer":0,"byteLength":4608,"byteOffset":25704},{"buffer":0,"byteLength":384,"byteOffset":30312},{"buffer":0,"byteLength":4872,"byteOffset":30696},{"buffer":0,"byteLength":1308,"byteOffset":35568},{"buffer":0,"byteLength":468,"byteOffset":36876},{"buffer":0,"byteLength":1872,"byteOffset":37344},{"buffer":0,"byteLength":1872,"byteOffset":39216},{"buffer":0,"byteLength":1872,"byteOffset":41088},{"buffer":0,"byteLength":1872,"byteOffset":42960},{"buffer":0,"byteLength":864,"byteOffset":44832},{"buffer":0,"byteLength":132,"byteOffset":45696},{"buffer":0,"byteLength":1362,"byteOffset":45828},{"buffer":0,"byteLength":1392,"byteOffset":47190},{"buffer":0,"byteLength":1368,"byteOffset":48582},{"buffer":0,"byteLength":1392,"byteOffset":49950},{"buffer":0,"byteLength":102864,"byteOffset":51344,"byteStride":48},{"buffer":0,"byteLength":3264,"byteOffset":154208,"byteStride":48},{"buffer":0,"byteLength":12000,"byteOffset":157472,"byteStride":48},{"buffer":0,"byteLength":16512,"byteOffset":169472,"byteStride":48},{"buffer":0,"byteLength":9984,"byteOffset":185984,"byteStride":48},{"buffer":0,"byteLength":10080,"byteOffset":195968,"byteStride":48},{"buffer":0,"byteLength":11328,"byteOffset":206048,"byteStride":48},{"buffer":0,"byteLength":30528,"byteOffset":217376,"byteStride":48},{"buffer":0,"byteLength":3648,"byteOffset":247904,"byteStride":48},{"buffer":0,"byteLength":16512,"byteOffset":251552,"byteStride":48},{"buffer":0,"byteLength":16512,"byteOffset":268064,"byteStride":48},{"buffer":0,"byteLength":16512,"byteOffset":284576,"byteStride":48},{"buffer":0,"byteLength":4128,"byteOffset":301088,"byteStride":48},{"buffer":0,"byteLength":1248,"byteOffset":305216,"byteStride":48},{"buffer":0,"byteLength":9936,"byteOffset":306464,"byteStride":48},{"buffer":0,"byteLength":10080,"byteOffset":316400,"byteStride":48},{"buffer":0,"byteLength":28840,"byteOffset":326480,"byteStride":56}],"accessors":[{"bufferView":17,"componentType":5126,"count":2143,"type":"VEC3","max":[1.00000072,0.99518466,1.00000107],"min":[-1.00000024,-0.9951848,-0.9999994]},{"bufferView":17,"componentType":5126,"count":2143,"type":"VEC3","byteOffset":12},{"bufferView":17,"componentType":5126,"count":2143,"type":"VEC4","byteOffset":24},{"bufferView":17,"componentType":5126,"count":2143,"type":"VEC2","byteOffset":40},{"bufferView":0,"componentType":5123,"count":11892,"type":"SCALAR"},{"bufferView":23,"componentType":5126,"count":236,"type":"VEC3","max":[1,1,0.9999999],"min":[-0.9999999,-1,-0.9999999]},{"bufferView":23,"componentType":5126,"count":236,"type":"VEC3","byteOffset":12},{"bufferView":23,"componentType":5126,"count":236,"type":"VEC4","byteOffset":24},{"bufferView":23,"componentType":5126,"count":236,"type":"VEC2","byteOffset":40},{"bufferView":1,"componentType":5123,"count":960,"type":"SCALAR"},{"bufferView":33,"componentType":5126,"count":515,"type":"VEC3","max":[0.5,0.5,0.5],"min":[-0.5,-0.5,-0.5]},{"bufferView":33,"componentType":5126,"count":515,"type":"VEC3","byteOffset":12},{"bufferView":33,"componentType":5126,"count":515,"type":"VEC4","byteOffset":24},{"bufferView":33,"componentType":5126,"count":515,"type":"VEC2","byteOffset":40},{"bufferView":33,"componentType":5126,"count":515,"type":"VEC2","byteOffset":48},{"bufferView":2,"componentType":5123,"count":2304,"type":"SCALAR"},{"bufferView":18,"componentType":5126,"count":68,"type":"VEC3","max":[1.99999988,0,2.00000048],"min":[-2,0,-1.99999952]},{"bufferView":18,"componentType":5126,"count":68,"type":"VEC3","byteOffset":12},{"bufferView":18,"componentType":5126,"count":68,"type":"VEC4","byteOffset":24},{"bufferView":18,"componentType":5126,"count":68,"type":"VEC2","byteOffset":40},{"bufferView":3,"componentType":5123,"count":192,"type":"SCALAR"},{"bufferView":24,"componentType":5126,"count":636,"type":"VEC3","max":[0.3597079,0.354243129,0.711804867],"min":[-0.359707773,-0.354243129,-0.30779314]},{"bufferView":24,"componentType":5126,"count":636,"type":"VEC3","byteOffset":12},{"bufferView":24,"componentType":5126,"count":636,"type":"VEC4","byteOffset":24},{"bufferView":24,"componentType":5126,"count":636,"type":"VEC2","byteOffset":40},{"bufferView":4,"componentType":5123,"count":2436,"type":"SCALAR"},{"bufferView":19,"componentType":5126,"count":250,"type":"VEC3","max":[0.369531751,0.3692864,0.5321026],"min":[-0.369687617,-0.371104628,-0.00102359056]},{"bufferView":19,"componentType":5126,"count":250,"type":"VEC3","byteOffset":12},{"bufferView":19,"componentType":5126,"count":250,"type":"VEC4","byteOffset":24},{"bufferView":19,"componentType":5126,"count":250,"type":"VEC2","byteOffset":40},{"bufferView":5,"componentType":5123,"count":654,"type":"SCALAR"},{"bufferView":25,"componentType":5126,"count":76,"type":"VEC3","max":[0.105025604,0.0849804,0.173671752],"min":[-0.105025604,-0.113090664,-0.05248937]},{"bufferView":25,"componentType":5126,"count":76,"type":"VEC3","byteOffset":12},{"bufferView":25,"componentType":5126,"count":76,"type":"VEC4","byteOffset":24},{"bufferView":25,"componentType":5126,"count":76,"type":"VEC2","byteOffset":40},{"bufferView":6,"componentType":5123,"count":234,"type":"SCALAR"},{"bufferView":26,"componentType":5126,"count":344,"type":"VEC3","max":[0.402213722,0.131802425,0.132099],"min":[0.132421166,-0.131802425,-0.295969546]},{"bufferView":26,"componentType":5126,"count":344,"type":"VEC3","byteOffset":12},{"bufferView":26,"componentType":5126,"count":344,"type":"VEC4","byteOffset":24},{"bufferView":26,"componentType":5126,"count":344,"type":"VEC2","byteOffset":40},{"bufferView":7,"componentType":5123,"count":936,"type":"SCALAR"},{"bufferView":27,"componentType":5126,"count":344,"type":"VEC3","max":[0.402213722,0.131802425,0.132099],"min":[0.132421166,-0.131802425,-0.295969546]},{"bufferView":27,"componentType":5126,"count":344,"type":"VEC3","byteOffset":12},{"bufferView":27,"componentType":5126,"count":344,"type":"VEC4","byteOffset":24},{"bufferView":27,"componentType":5126,"count":344,"type":"VEC2","byteOffset":40},{"bufferView":8,"componentType":5123,"count":936,"type":"SCALAR"},{"bufferView":28,"componentType":5126,"count":344,"type":"VEC3","max":[0.402213722,0.131802425,0.132099],"min":[0.132421166,-0.131802425,-0.295969546]},{"bufferView":28,"componentType":5126,"count":344,"type":"VEC3","byteOffset":12},{"bufferView":28,"componentType":5126,"count":344,"type":"VEC4","byteOffset":24},{"bufferView":28,"componentType":5126,"count":344,"type":"VEC2","byteOffset":40},{"bufferView":9,"componentType":5123,"count":936,"type":"SCALAR"},{"bufferView":20,"componentType":5126,"count":344,"type":"VEC3","max":[0.402213722,0.131802425,0.132099],"min":[0.132421166,-0.131802425,-0.295969546]},{"bufferView":20,"componentType":5126,"count":344,"type":"VEC3","byteOffset":12},{"bufferView":20,"componentType":5126,"count":344,"type":"VEC4","byteOffset":24},{"bufferView":20,"componentType":5126,"count":344,"type":"VEC2","byteOffset":40},{"bufferView":10,"componentType":5123,"count":936,"type":"SCALAR"},{"bufferView":29,"componentType":5126,"count":86,"type":"VEC3","max":[0.276536644,0.27233538,0.665649235],"min":[-0.276536644,-0.27233544,0.4699065]},{"bufferView":29,"componentType":5126,"count":86,"type":"VEC3","byteOffset":12},{"bufferView":29,"componentType":5126,"count":86,"type":"VEC4","byteOffset":24},{"bufferView":29,"componentType":5126,"count":86,"type":"VEC2","byteOffset":40},{"bufferView":11,"componentType":5123,"count":432,"type":"SCALAR"},{"bufferView":30,"componentType":5126,"count":26,"type":"VEC3","max":[0.0743693,0.0743693,0.0694724247],"min":[-0.0743693,-0.0743693,-0.0187387243]},{"bufferView":30,"componentType":5126,"count":26,"type":"VEC3","byteOffset":12},{"bufferView":30,"componentType":5126,"count":26,"type":"VEC4","byteOffset":24},{"bufferView":30,"componentType":5126,"count":26,"type":"VEC2","byteOffset":40},{"bufferView":12,"componentType":5123,"count":66,"type":"SCALAR"},{"bufferView":31,"componentType":5126,"count":207,"type":"VEC3","max":[0.196970075,0.177742451,0.383267522],"min":[-0.196970016,-0.234866589,0.287271261]},{"bufferView":31,"componentType":5126,"count":207,"type":"VEC3","byteOffset":12},{"bufferView":31,"componentType":5126,"count":207,"type":"VEC4","byteOffset":24},{"bufferView":31,"componentType":5126,"count":207,"type":"VEC2","byteOffset":40},{"bufferView":13,"componentType":5123,"count":681,"type":"SCALAR"},{"bufferView":32,"componentType":5126,"count":210,"type":"VEC3","max":[0.19697006,0.18525511,0.383267522],"min":[-0.194991276,-0.234403163,0.287271261]},{"bufferView":32,"componentType":5126,"count":210,"type":"VEC3","byteOffset":12},{"bufferView":32,"componentType":5126,"count":210,"type":"VEC4","byteOffset":24},{"bufferView":32,"componentType":5126,"count":210,"type":"VEC2","byteOffset":40},{"bufferView":14,"componentType":5123,"count":696,"type":"SCALAR"},{"bufferView":21,"componentType":5126,"count":208,"type":"VEC3","max":[0.194706768,0.186928809,0.383267522],"min":[-0.196970016,-0.236376226,0.287271261]},{"bufferView":21,"componentType":5126,"count":208,"type":"VEC3","byteOffset":12},{"bufferView":21,"componentType":5126,"count":208,"type":"VEC4","byteOffset":24},{"bufferView":21,"componentType":5126,"count":208,"type":"VEC2","byteOffset":40},{"bufferView":15,"componentType":5123,"count":684,"type":"SCALAR"},{"bufferView":22,"componentType":5126,"count":210,"type":"VEC3","max":[0.196970075,0.18525511,0.383267522],"min":[-0.196002454,-0.235763013,0.287271261]},{"bufferView":22,"componentType":5126,"count":210,"type":"VEC3","byteOffset":12},{"bufferView":22,"componentType":5126,"count":210,"type":"VEC4","byteOffset":24},{"bufferView":22,"componentType":5126,"count":210,"type":"VEC2","byteOffset":40},{"bufferView":16,"componentType":5123,"count":696,"type":"SCALAR"}],"cameras":[{"type":"perspective","perspective":{"yfov":1.04719758,"zfar":1000,"znear":0.3}}],"images":[{"name":"Saturn_Ring.jpg","uri":"Saturn_Ring.jpg","mimeType":"image/jpeg"},{"name":"rocket_normal.png","uri":"rocket_normal.png","mimeType":"image/png"},{"name":"rocket_base.png","uri":"rocket_base.png","mimeType":"image/png"},{"name":"rocket_metalAOsmooth.jpg","uri":"rocket_metalAOsmooth.jpg","mimeType":"image/jpeg"}],"materials":[{"name":"URP_Pluto_2k","pbrMetallicRoughness":{"metallicFactor":0}},{"name":"URP_Pluto_Lod","pbrMetallicRoughness":{"metallicFactor":0}},{"name":"URP_Sun","pbrMetallicRoughness":{"baseColorFactor":[1,0.945167243,0,1],"metallicFactor":0},"extensions":{"KHR_materials_unlit":{}}},{"name":"URP_Sun Sphere","pbrMetallicRoughness":{"baseColorFactor":[1,0.5917849,0.154411763,1],"metallicFactor":0},"extensions":{"KHR_materials_unlit":{}}},{"name":"URP_Venus_2k","pbrMetallicRoughness":{"metallicFactor":0}},{"name":"URP_Venus_Lod","pbrMetallicRoughness":{"metallicFactor":0}},{"name":"URP_Earth_2k","pbrMetallicRoughness":{"metallicFactor":0}},{"name":"URP_Earth_Lod","pbrMetallicRoughness":{"metallicFactor":0}},{"name":"URP_Jupiter_2k","pbrMetallicRoughness":{"metallicFactor":0}},{"name":"URP_Jupiter_Lod","pbrMetallicRoughness":{"metallicFactor":0}},{"name":"URP_Mars_2k","pbrMetallicRoughness":{"metallicFactor":0}},{"name":"URP_Mars_Lod","pbrMetallicRoughness":{"metallicFactor":0}},{"name":"URP_Moon_2k","pbrMetallicRoughness":{"metallicFactor":0}},{"name":"URP_Moon_Lod","pbrMetallicRoughness":{"metallicFactor":0}},{"name":"URP_Mercury_2k","pbrMetallicRoughness":{"metallicFactor":0}},{"name":"URP_Mercury_Lod","pbrMetallicRoughness":{"metallicFactor":0}},{"name":"URP_Saturn_Ring","pbrMetallicRoughness":{"metallicFactor":0,"baseColorTexture":{"index":0}},"alphaMode":"BLEND","doubleSided":true},{"name":"URP_Saturn_2k","pbrMetallicRoughness":{"metallicFactor":0}},{"name":"URP_Saturn_Lod","pbrMetallicRoughness":{"metallicFactor":0}},{"name":"URP_Neptune_2k","pbrMetallicRoughness":{"metallicFactor":0}},{"name":"URP_Neptune_Lod","pbrMetallicRoughness":{"metallicFactor":0}},{"name":"URP_Uranus_2k","pbrMetallicRoughness":{"metallicFactor":0}},{"name":"URP_Uranus_Lod","pbrMetallicRoughness":{"metallicFactor":0}},{"name":"rocket","pbrMetallicRoughness":{"baseColorTexture":{"index":2},"metallicRoughnessTexture":{"index":3}},"normalTexture":{"index":1}},{"name":"glass","pbrMetallicRoughness":{"baseColorFactor":[1,1,1,0.8745098],"baseColorTexture":{"index":2},"metallicRoughnessTexture":{"index":3}},"normalTexture":{"index":1},"alphaMode":"BLEND"}],"meshes":[{"name":"Earth","primitives":[{"attributes":{"POSITION":0,"NORMAL":1,"TANGENT":2,"TEXCOORD_0":3},"indices":4,"material":0}]},{"name":"Earth_Lod","primitives":[{"attributes":{"POSITION":5,"NORMAL":6,"TANGENT":7,"TEXCOORD_0":8},"indices":9,"material":1}]},{"name":"Sphere","primitives":[{"attributes":{"POSITION":10,"NORMAL":11,"TANGENT":12,"TEXCOORD_0":13,"TEXCOORD_1":14},"indices":15,"material":2}]},{"name":"Cylinder","primitives":[{"attributes":{"POSITION":16,"NORMAL":17,"TANGENT":18,"TEXCOORD_0":19},"indices":20,"material":16}]},{"name":"body","primitives":[{"attributes":{"POSITION":21,"NORMAL":22,"TANGENT":23,"TEXCOORD_0":24},"indices":25,"material":23}]},{"name":"borders","primitives":[{"attributes":{"POSITION":26,"NORMAL":27,"TANGENT":28,"TEXCOORD_0":29},"indices":30,"material":23}]},{"name":"chair","primitives":[{"attributes":{"POSITION":31,"NORMAL":32,"TANGENT":33,"TEXCOORD_0":34},"indices":35,"material":23}]},{"name":"exhaust_00","primitives":[{"attributes":{"POSITION":36,"NORMAL":37,"TANGENT":38,"TEXCOORD_0":39},"indices":40,"material":23}]},{"name":"exhaust_01","primitives":[{"attributes":{"POSITION":41,"NORMAL":42,"TANGENT":43,"TEXCOORD_0":44},"indices":45,"material":23}]},{"name":"exhaust_02","primitives":[{"attributes":{"POSITION":46,"NORMAL":47,"TANGENT":48,"TEXCOORD_0":49},"indices":50,"material":23}]},{"name":"exhaust_03","primitives":[{"attributes":{"POSITION":51,"NORMAL":52,"TANGENT":53,"TEXCOORD_0":54},"indices":55,"material":23}]},{"name":"glass","primitives":[{"attributes":{"POSITION":56,"NORMAL":57,"TANGENT":58,"TEXCOORD_0":59},"indices":60,"material":24}]},{"name":"table","primitives":[{"attributes":{"POSITION":61,"NORMAL":62,"TANGENT":63,"TEXCOORD_0":64},"indices":65,"material":23}]},{"name":"window_01","primitives":[{"attributes":{"POSITION":66,"NORMAL":67,"TANGENT":68,"TEXCOORD_0":69},"indices":70,"material":23}]},{"name":"window_004","primitives":[{"attributes":{"POSITION":71,"NORMAL":72,"TANGENT":73,"TEXCOORD_0":74},"indices":75,"material":23}]},{"name":"window_005","primitives":[{"attributes":{"POSITION":76,"NORMAL":77,"TANGENT":78,"TEXCOORD_0":79},"indices":80,"material":23}]},{"name":"window_006","primitives":[{"attributes":{"POSITION":81,"NORMAL":82,"TANGENT":83,"TEXCOORD_0":84},"indices":85,"material":23}]},{"name":"Sphere","primitives":[{"attributes":{"POSITION":10,"NORMAL":11,"TANGENT":12,"TEXCOORD_0":13,"TEXCOORD_1":14},"indices":15,"material":3}]},{"name":"Earth","primitives":[{"attributes":{"POSITION":0,"NORMAL":1,"TANGENT":2,"TEXCOORD_0":3},"indices":4,"material":4}]},{"name":"Earth_Lod","primitives":[{"attributes":{"POSITION":5,"NORMAL":6,"TANGENT":7,"TEXCOORD_0":8},"indices":9,"material":5}]},{"name":"Earth","primitives":[{"attributes":{"POSITION":0,"NORMAL":1,"TANGENT":2,"TEXCOORD_0":3},"indices":4,"material":6}]},{"name":"Earth_Lod","primitives":[{"attributes":{"POSITION":5,"NORMAL":6,"TANGENT":7,"TEXCOORD_0":8},"indices":9,"material":7}]},{"name":"Earth","primitives":[{"attributes":{"POSITION":0,"NORMAL":1,"TANGENT":2,"TEXCOORD_0":3},"indices":4,"material":8}]},{"name":"Earth_Lod","primitives":[{"attributes":{"POSITION":5,"NORMAL":6,"TANGENT":7,"TEXCOORD_0":8},"indices":9,"material":9}]},{"name":"Earth","primitives":[{"attributes":{"POSITION":0,"NORMAL":1,"TANGENT":2,"TEXCOORD_0":3},"indices":4,"material":10}]},{"name":"Earth_Lod","primitives":[{"attributes":{"POSITION":5,"NORMAL":6,"TANGENT":7,"TEXCOORD_0":8},"indices":9,"material":11}]},{"name":"Earth","primitives":[{"attributes":{"POSITION":0,"NORMAL":1,"TANGENT":2,"TEXCOORD_0":3},"indices":4,"material":12}]},{"name":"Earth_Lod","primitives":[{"attributes":{"POSITION":5,"NORMAL":6,"TANGENT":7,"TEXCOORD_0":8},"indices":9,"material":13}]},{"name":"Earth","primitives":[{"attributes":{"POSITION":0,"NORMAL":1,"TANGENT":2,"TEXCOORD_0":3},"indices":4,"material":14}]},{"name":"Earth_Lod","primitives":[{"attributes":{"POSITION":5,"NORMAL":6,"TANGENT":7,"TEXCOORD_0":8},"indices":9,"material":15}]},{"name":"Earth","primitives":[{"attributes":{"POSITION":0,"NORMAL":1,"TANGENT":2,"TEXCOORD_0":3},"indices":4,"material":17}]},{"name":"Earth_Lod","primitives":[{"attributes":{"POSITION":5,"NORMAL":6,"TANGENT":7,"TEXCOORD_0":8},"indices":9,"material":18}]},{"name":"Earth","primitives":[{"attributes":{"POSITION":0,"NORMAL":1,"TANGENT":2,"TEXCOORD_0":3},"indices":4,"material":19}]},{"name":"Earth_Lod","primitives":[{"attributes":{"POSITION":5,"NORMAL":6,"TANGENT":7,"TEXCOORD_0":8},"indices":9,"material":20}]},{"name":"Earth","primitives":[{"attributes":{"POSITION":0,"NORMAL":1,"TANGENT":2,"TEXCOORD_0":3},"indices":4,"material":21}]},{"name":"Earth_Lod","primitives":[{"attributes":{"POSITION":5,"NORMAL":6,"TANGENT":7,"TEXCOORD_0":8},"indices":9,"material":22}]}],"scene":0,"scenes":[{"name":"SpaceScene","nodes":[0,2,58,73,74,75,76,78]}],"textures":[{"source":0},{"source":1},{"source":2},{"source":3}],"extensions":{"KHR_lights_punctual":{"lights":[{"type":"directional","name":"Directional Light","color":[1,0.904661357,0.6724432]}]}}}